<?xml version="1.0" standalone="no"?>
<!DOCTYPE svg PUBLIC "-//W3C//DTD SVG 20010904//EN"
 "http://www.w3.org/TR/2001/REC-SVG-20010904/DTD/svg10.dtd">
<svg version="1.0" xmlns="http://www.w3.org/2000/svg"
 width="1024.000000pt" height="1024.000000pt" viewBox="0 0 1024.000000 1024.000000"
 preserveAspectRatio="xMidYMid meet">

<g transform="translate(0.000000,1024.000000) scale(0.100000,-0.100000)"
fill="#000000" stroke="none">
<path d="M1493 10145 c-104 -128 -235 -312 -310 -437 -189 -315 -358 -730
-468 -1148 -54 -206 -52 -200 -126 -360 -209 -452 -411 -959 -523 -1314 -61
-191 -67 -214 -64 -283 l3 -75 89 268 c137 417 325 908 429 1121 24 48 51 108
60 132 10 24 20 42 22 39 3 -2 -2 -42 -11 -89 -8 -46 -30 -169 -49 -274 -21
-120 -45 -220 -64 -270 -94 -241 -297 -961 -351 -1240 -6 -33 -27 -131 -46
-218 -65 -296 -76 -397 -80 -677 -2 -193 0 -235 7 -175 57 501 130 904 255
1400 86 338 211 771 221 761 3 -2 -2 -76 -11 -163 -17 -176 -19 -211 -41 -568
-39 -653 -43 -897 -25 -1315 25 -564 110 -1082 245 -1495 84 -258 238 -561
381 -751 37 -49 89 -133 116 -187 83 -165 222 -339 347 -436 185 -142 410
-211 595 -181 71 11 126 33 126 50 0 6 -24 10 -54 10 -138 0 -311 149 -411
354 -98 201 -148 397 -194 770 l-8 59 21 -25 c12 -14 55 -67 96 -118 235 -289
540 -501 818 -566 135 -32 361 -3 462 59 l35 22 -101 6 c-113 6 -164 27 -221
93 -70 79 -180 381 -207 566 l-6 45 37 -68 c141 -252 365 -429 681 -535 l112
-38 -105 -62 c-360 -215 -596 -472 -874 -952 -89 -153 -243 -467 -302 -613
l-44 -108 -100 -67 c-137 -91 -199 -150 -216 -210 -17 -59 -17 -272 0 -361 12
-60 11 -66 -8 -90 -65 -82 -251 -396 -251 -423 0 -5 13 -8 29 -8 28 0 34 8 87
108 66 123 132 229 181 288 l34 42 -16 87 c-8 48 -15 144 -15 214 0 108 3 131
20 158 20 34 137 125 237 186 56 34 60 39 97 129 61 145 235 501 305 623 122
212 359 550 425 604 16 13 16 9 10 -68 -8 -90 -11 -805 -5 -971 4 -114 12
-204 37 -431 l15 -145 -51 -190 c-50 -183 -120 -478 -134 -559 -4 -22 -9 -48
-12 -58 -5 -15 -1 -18 22 -15 27 3 28 5 56 143 45 226 225 874 304 1095 45
127 114 357 114 381 0 37 -22 18 -50 -43 -16 -35 -68 -181 -116 -326 -48 -144
-91 -259 -95 -255 -4 4 -15 107 -25 228 -18 217 -25 753 -15 1123 4 135 5 146
29 173 67 80 370 294 389 275 3 -2 0 -26 -7 -53 -20 -85 -24 -452 -6 -582 45
-321 230 -763 413 -989 19 -24 34 -45 32 -46 -2 -2 -46 -18 -97 -35 -107 -36
-238 -94 -264 -118 -26 -23 -23 -79 11 -213 33 -129 72 -241 108 -314 23 -46
25 -56 18 -140 -6 -87 3 -182 26 -268 9 -34 13 -38 40 -38 24 0 30 4 25 15
-21 56 -38 199 -33 286 4 87 2 102 -20 155 -66 159 -96 244 -114 327 -37 170
-41 149 42 187 269 120 740 210 1034 196 119 -5 264 -34 349 -70 l39 -16 -7
-63 c-3 -34 -11 -104 -17 -154 l-11 -93 -40 0 c-83 0 -143 -47 -205 -158 -20
-37 -37 -68 -38 -69 -1 -2 -48 13 -105 32 -112 38 -183 44 -228 21 -42 -22
-362 -352 -556 -573 l-19 -23 39 1 c35 0 44 6 91 62 72 87 349 384 403 433 56
51 80 64 120 64 35 0 172 -44 208 -66 21 -14 21 -16 8 -42 -8 -15 -26 -40 -40
-57 l-26 -30 -27 31 c-33 37 -83 71 -83 56 0 -13 165 -352 199 -409 15 -25 33
-43 43 -43 10 0 18 4 18 9 0 4 -25 63 -55 129 -30 67 -55 129 -55 139 0 33
164 345 202 384 34 35 99 61 115 45 7 -7 -17 -126 -26 -126 -3 0 -14 14 -23
30 -9 17 -22 30 -28 30 -25 0 -5 -67 60 -197 80 -163 159 -273 267 -373 67
-61 82 -70 115 -70 l38 0 -78 69 c-131 115 -213 220 -283 362 l-32 67 42 183
c23 101 49 234 57 294 20 156 40 266 84 460 56 244 70 332 79 489 10 178 -1
365 -33 536 -26 139 -35 172 -162 591 -90 297 -120 427 -128 550 -7 108 5 156
45 178 24 13 30 12 72 -12 49 -29 129 -127 171 -211 43 -85 121 -303 159 -446
35 -130 187 -711 243 -932 16 -60 31 -108 35 -108 16 0 59 55 84 108 125 262
276 721 394 1197 69 281 91 344 139 397 30 33 40 39 70 36 68 -6 91 -69 92
-243 0 -143 -15 -225 -110 -605 -114 -459 -247 -875 -300 -942 -10 -14 -51
-44 -91 -69 -39 -24 -83 -54 -97 -65 l-26 -21 22 -7 c17 -6 45 9 130 68 155
109 326 210 414 245 161 65 220 31 254 -146 21 -111 22 -108 -43 -123 -98 -21
-529 -257 -520 -283 7 -20 34 -8 224 95 223 121 287 148 350 148 93 0 140 -79
152 -254 13 -189 -19 -343 -86 -417 -32 -36 -199 -149 -219 -149 -5 0 -9 57
-9 128 l0 127 43 -3 c41 -2 42 -2 42 28 0 40 13 63 67 124 40 45 52 66 37 66
-14 0 -102 -76 -172 -149 l-74 -76 9 -45 c16 -89 8 -219 -21 -322 -96 -345
-244 -553 -566 -796 -156 -118 -160 -122 -109 -122 22 0 46 13 85 46 30 26 56
45 57 43 2 -2 11 -23 22 -46 16 -38 22 -43 52 -43 18 0 33 2 33 5 0 3 -9 23
-20 45 -31 61 -27 72 49 134 124 102 239 239 326 391 9 16 23 8 120 -72 61
-50 134 -118 164 -152 51 -58 53 -64 47 -102 -7 -44 -49 -139 -91 -207 l-27
-43 34 3 c31 3 36 9 80 93 86 163 84 198 -10 298 -32 33 -52 61 -46 66 5 4 29
13 54 20 72 20 337 153 440 221 210 138 472 354 841 691 406 371 748 569 986
569 118 0 149 -25 236 -190 65 -124 116 -256 162 -425 67 -247 95 -509 102
-988 l5 -357 23 0 c22 0 23 4 30 118 11 185 -9 683 -36 897 -34 273 -111 548
-204 735 -13 25 -35 89 -49 144 -41 156 -52 173 -162 267 -195 168 -347 274
-524 367 -52 27 -205 107 -340 177 -290 152 -384 205 -373 215 4 4 45 33 91
64 253 176 489 420 674 697 36 53 72 113 82 133 10 21 19 36 21 34 11 -10 -53
-257 -99 -385 -57 -159 -101 -253 -165 -354 -22 -35 -38 -65 -36 -67 2 -3 15
-2 29 2 40 10 138 98 243 216 90 102 101 111 158 130 211 70 462 304 631 588
57 96 65 88 39 -40 -36 -175 -87 -306 -152 -386 -44 -54 -26 -55 69 -5 96 50
271 224 357 353 87 132 211 389 266 554 83 249 123 452 146 736 l13 155 18
-100 c84 -461 74 -793 -33 -1087 -41 -110 -64 -155 -116 -215 -25 -29 -41 -53
-36 -53 21 0 107 64 162 120 106 107 194 271 261 487 l31 101 -3 468 -4 469
-36 136 c-20 74 -50 178 -66 230 -30 93 -30 96 -36 414 -4 176 -11 372 -16
435 -20 256 -40 489 -49 565 -21 171 -82 572 -96 625 -7 30 -19 84 -25 120
-16 93 -125 535 -161 654 -62 206 -165 487 -244 666 -144 324 -247 503 -449
778 l-60 82 -54 0 -53 0 65 -82 c225 -284 409 -619 569 -1033 100 -258 167
-473 242 -779 136 -551 212 -1056 244 -1621 11 -184 16 -473 9 -481 -2 -2 -37
81 -78 184 -40 103 -89 221 -109 262 -31 64 -36 71 -39 48 -5 -42 31 -159 138
-448 210 -568 271 -808 290 -1138 15 -254 -11 -488 -75 -688 -28 -85 -126
-297 -143 -308 -5 -3 1 28 14 70 77 241 83 603 18 994 -45 275 -115 557 -134
545 -6 -4 -10 -99 -10 -228 0 -398 -34 -660 -126 -971 -62 -210 -182 -475
-290 -638 -49 -74 -252 -290 -239 -253 4 11 18 48 31 82 13 34 30 97 39 140
21 106 47 421 36 440 -11 20 -13 15 -55 -95 -43 -111 -75 -175 -139 -277 -83
-130 -195 -263 -288 -341 -86 -71 -275 -192 -285 -182 -2 3 14 36 37 74 69
113 184 341 237 469 256 616 370 1382 343 2295 -15 472 -35 707 -101 1175 -95
668 -191 1071 -375 1560 -169 452 -347 786 -592 1113 -82 110 -85 112 -124
112 l-39 0 71 -87 c332 -410 608 -989 789 -1653 141 -518 269 -1329 299 -1895
53 -985 -27 -1757 -248 -2407 -125 -365 -329 -737 -510 -928 l-52 -55 25 52
c87 178 150 386 185 613 13 85 29 146 49 190 84 184 195 643 152 628 -7 -2
-32 -73 -55 -158 -102 -377 -188 -579 -357 -830 -124 -184 -179 -252 -323
-396 -227 -227 -523 -434 -770 -537 -111 -46 -111 -46 -72 10 55 76 142 238
195 363 71 165 131 358 207 660 62 251 165 734 165 779 0 12 33 56 75 103 160
176 303 434 256 463 -6 3 -35 -43 -65 -103 -76 -148 -206 -332 -235 -332 -6 0
-18 -12 -28 -27 -31 -47 -158 -147 -254 -199 -78 -43 -157 -74 -249 -100 -8
-2 5 13 30 33 85 70 186 178 234 253 199 303 338 844 372 1437 8 144 23 192
96 308 76 119 76 129 9 179 l-54 41 7 190 c4 104 11 251 16 325 5 74 9 253 10
398 0 226 2 262 15 262 19 0 19 24 1 53 -9 14 -17 66 -21 137 -25 429 -100
861 -208 1191 -58 176 -96 269 -176 434 -111 229 -152 299 -279 483 -80 114
-88 122 -119 122 -18 0 -33 -2 -33 -5 0 -3 24 -38 53 -78 254 -343 516 -937
602 -1360 49 -240 95 -560 102 -716 l6 -135 -59 46 c-101 78 -245 168 -356
224 l-107 54 -3 179 c-3 164 -8 204 -24 189 -3 -4 -12 -80 -20 -169 -8 -90
-16 -165 -18 -166 -1 -1 -35 11 -75 28 -40 17 -114 45 -163 62 -50 18 -95 39
-99 47 -5 8 -22 49 -40 90 -17 41 -51 114 -74 162 -24 47 -55 128 -69 180 -62
226 -154 478 -175 478 -16 0 -14 -9 23 -138 58 -194 94 -350 126 -536 16 -97
30 -184 30 -193 0 -13 -7 -14 -42 -9 -24 3 -94 13 -157 20 -62 8 -117 18 -121
23 -4 4 -40 78 -80 163 -172 371 -382 723 -678 1140 -154 216 -350 420 -404
420 -32 0 -31 5 -18 -115 16 -145 20 -182 30 -335 13 -185 13 -607 1 -758 -6
-64 -15 -180 -21 -257 -6 -77 -20 -199 -30 -271 -20 -136 -102 -485 -144 -614
-69 -211 -167 -425 -259 -568 -86 -133 -264 -300 -384 -361 -49 -24 -52 -20
-22 29 57 93 105 258 135 465 19 133 31 470 16 479 -6 4 -13 -7 -17 -26 -14
-71 -108 -379 -147 -483 -109 -295 -274 -516 -469 -628 -25 -15 -50 -27 -56
-27 -5 0 -35 53 -66 118 -107 223 -128 288 -152 462 -27 198 -36 250 -47 256
-12 8 -3 -206 18 -439 17 -187 19 -347 4 -347 -20 0 -104 95 -163 185 -143
218 -272 550 -336 865 -42 206 -45 234 -45 437 -1 164 -6 207 -21 191 -5 -5
-13 -47 -34 -193 -6 -38 -16 -141 -22 -228 -10 -126 -15 -160 -28 -166 -9 -5
-46 -11 -83 -15 -37 -4 -98 -16 -134 -27 -52 -16 -69 -18 -74 -8 -30 47 -23
709 9 934 43 304 107 565 191 777 27 68 37 105 30 112 -21 21 -133 -264 -200
-512 -34 -127 -71 -326 -100 -537 -16 -116 -26 -155 -59 -231 -73 -168 -211
-554 -250 -701 -9 -32 -25 -53 -74 -94 -34 -29 -101 -90 -148 -136 -80 -79
-86 -83 -101 -66 -25 29 -235 357 -325 508 l-84 139 7 61 c28 279 105 798 134
904 9 34 6 51 -6 38 -10 -9 -62 -224 -93 -382 -25 -127 -50 -284 -77 -492 -3
-24 -9 -43 -13 -43 -4 0 -18 22 -31 50 -27 58 -44 76 -82 85 -23 6 -33 2 -58
-25 -39 -41 -92 -152 -97 -204 -4 -37 7 -64 107 -256 l113 -215 2 -460 c2
-510 13 -696 67 -1055 18 -124 33 -278 38 -390 30 -661 113 -1157 275 -1645
113 -343 272 -648 454 -875 117 -146 287 -301 374 -340 36 -16 37 -18 15 -24
-64 -17 -245 5 -358 44 -88 31 -128 52 -240 125 -371 245 -717 725 -845 1175
-15 52 -34 104 -41 114 -26 38 -28 -29 -4 -127 32 -132 82 -261 165 -427 l73
-145 17 -145 c60 -537 178 -853 396 -1054 33 -31 75 -64 92 -74 l32 -17 -35
-3 c-51 -4 -220 42 -303 82 -140 68 -286 204 -397 369 -190 286 -343 811 -419
1447 -37 304 -51 570 -51 958 0 339 -5 415 -25 364 -30 -77 -30 -757 -1 -1082
43 -463 111 -855 202 -1164 19 -65 33 -120 31 -123 -6 -5 -102 148 -155 247
-79 145 -158 363 -232 635 -68 253 -139 723 -166 1105 -13 181 -15 322 -11
720 8 658 29 1012 93 1530 67 541 157 1017 250 1324 184 606 423 1060 768
1464 l96 112 -49 0 -50 0 -78 -95z m3895 -37 c39 -40 93 -100 120 -133 163
-199 466 -668 637 -985 70 -129 225 -454 225 -470 0 -4 -39 -10 -87 -14 -182
-14 -351 -50 -505 -106 -91 -33 -108 -45 -108 -71 0 -25 30 -25 80 1 103 52
365 102 544 104 l119 1 34 -80 c71 -166 137 -356 199 -573 35 -124 64 -234 64
-243 0 -23 18 -33 34 -20 7 6 20 37 30 68 35 123 48 245 53 524 l6 277 41 -12
c39 -11 42 -15 74 -96 83 -213 202 -600 226 -742 13 -73 44 -57 70 36 8 28 26
116 41 196 46 258 45 254 60 239 47 -48 306 -685 390 -959 31 -102 65 -212 76
-244 10 -33 18 -61 16 -62 -1 -2 -27 29 -57 67 -210 270 -529 465 -847 519
-140 24 -353 27 -474 5 -200 -35 -446 -137 -587 -242 -117 -88 -280 -263 -244
-263 5 0 40 25 79 55 80 62 96 69 60 26 -43 -51 -137 -264 -123 -278 3 -3 29
15 58 39 82 68 189 143 284 197 90 52 252 117 263 105 3 -4 0 -9 -7 -11 -21
-8 -97 -114 -134 -188 -131 -259 -149 -609 -48 -886 81 -221 275 -395 455
-406 62 -4 68 -3 50 9 -11 8 -50 26 -88 41 -37 15 -86 39 -108 53 -63 39 -131
105 -125 121 3 8 2 12 -3 9 -5 -3 -16 5 -25 19 -19 29 -20 39 -4 29 7 -4 8 -3
4 5 -4 6 -11 9 -16 6 -10 -6 -46 78 -66 157 -38 147 3 235 161 345 l31 21 -4
-34 c-7 -60 18 -200 48 -261 68 -143 143 -197 275 -197 60 -1 78 3 124 29 121
67 197 226 195 408 -1 53 0 97 3 97 16 0 143 -73 138 -80 -3 -5 0 -12 6 -16 8
-4 9 -3 5 4 -13 21 8 13 38 -14 40 -37 56 -83 56 -157 0 -82 -14 -155 -45
-238 -24 -61 -66 -132 -51 -86 7 24 -1 21 -15 -4 -8 -15 -8 -19 0 -15 42 26
-43 -89 -92 -126 -56 -40 -139 -82 -209 -104 -56 -17 -76 -34 -40 -34 50 0
142 23 196 48 88 42 159 103 214 186 165 247 201 582 96 893 -53 158 -124 276
-207 349 -57 49 -25 36 116 -47 234 -139 393 -333 442 -542 28 -120 17 -300
-27 -435 -11 -35 -17 -66 -14 -69 9 -9 60 51 147 173 44 63 83 114 86 114 3 0
3 -15 0 -32 -4 -18 -9 -64 -12 -103 -32 -346 -111 -746 -190 -961 -85 -230
-168 -371 -289 -489 -92 -90 -157 -129 -266 -161 l-75 -22 45 -12 c28 -8 84
-10 150 -7 121 5 216 33 292 83 26 18 48 29 48 25 0 -12 -144 -191 -226 -283
-170 -189 -438 -390 -821 -616 -94 -56 -175 -102 -180 -102 -4 0 -7 37 -5 82
6 153 -36 279 -103 310 -33 15 -89 2 -125 -28 -50 -42 -96 -156 -148 -361
l-48 -188 -85 -36 c-121 -52 -288 -98 -407 -111 -123 -14 -121 -16 -161 98
-107 300 -126 341 -207 450 -63 86 -96 119 -146 145 -44 23 -70 24 -107 4 -84
-43 -86 -232 -5 -532 13 -51 27 -100 30 -108 9 -22 -21 -20 -193 15 -650 130
-1209 325 -1511 526 -182 122 -311 264 -358 395 -8 24 -37 121 -65 214 -95
328 -155 459 -403 889 -91 159 -166 293 -166 298 0 5 44 -35 98 -89 94 -94
196 -171 346 -262 38 -23 70 -40 72 -38 2 1 -15 30 -37 62 -89 133 -108 190
-116 346 -5 105 -3 125 21 208 50 177 136 314 279 446 75 69 152 117 227 140
24 8 23 6 -8 -29 -57 -65 -109 -186 -137 -319 -80 -372 63 -787 331 -966 99
-67 192 -95 286 -89 38 3 75 11 81 17 6 6 8 11 3 11 -34 0 -162 26 -206 42
-63 23 -164 94 -155 109 4 5 1 8 -7 7 -7 -2 -12 3 -10 10 1 8 -2 11 -7 8 -13
-8 -92 86 -86 102 3 7 1 11 -4 8 -9 -6 -25 25 -52 103 l-19 54 25 54 c13 30
29 52 34 49 5 -3 15 2 22 12 13 15 12 16 -3 3 -24 -18 -23 -6 3 30 11 16 24
27 29 24 4 -3 14 3 21 13 13 15 12 16 -3 3 -24 -18 -23 2 1 23 18 17 19 16 26
-16 4 -18 24 -70 46 -114 66 -138 175 -214 310 -214 123 0 209 66 245 190 25
84 11 231 -31 332 -7 17 -4 17 35 3 71 -25 119 -57 147 -98 27 -39 28 -45 28
-161 -1 -104 -4 -133 -29 -211 -40 -129 -80 -198 -150 -261 -66 -60 -58 -69
20 -24 90 51 166 164 214 315 32 99 39 325 16 455 -22 118 -76 273 -131 378
-24 45 -42 82 -39 82 3 0 18 -10 34 -22 16 -12 33 -19 36 -15 17 17 -115 183
-175 218 -54 32 -31 31 52 -3 42 -18 80 -28 84 -24 13 13 -69 79 -148 118
-198 99 -411 134 -654 108 -280 -30 -500 -154 -680 -386 -130 -166 -223 -351
-279 -557 l-33 -118 -27 61 c-32 72 -33 61 15 435 26 213 60 419 92 573 12 61
14 63 79 110 37 26 87 59 112 74 64 38 63 71 -3 169 l-48 72 17 71 c98 406
116 470 134 487 23 22 231 129 250 129 8 0 17 -28 25 -82 33 -218 127 -512
231 -718 22 -44 40 -84 40 -89 0 -5 -20 -13 -45 -17 -47 -7 -96 -36 -83 -50 4
-4 43 0 85 9 75 15 79 14 98 -4 12 -10 32 -20 45 -21 20 -2 24 2 25 22 l0 25
145 -1 c99 0 170 -6 223 -18 94 -21 125 -19 86 7 -51 34 -177 59 -325 64
l-141 5 -6 222 c-9 279 8 705 29 725 7 8 16 12 19 9 3 -3 21 -65 39 -139 108
-423 293 -783 479 -930 46 -37 51 -38 67 -24 13 12 19 40 25 111 4 51 11 94
15 94 5 0 30 -39 55 -87 25 -49 58 -103 74 -122 25 -30 32 -33 62 -27 92 17
246 143 356 291 61 81 155 260 204 387 52 134 55 117 18 -81 -27 -138 -53
-216 -116 -340 -29 -58 -53 -106 -53 -108 0 -2 16 -3 35 -3 41 0 183 71 258
129 77 59 180 166 247 256 98 132 249 442 296 610 152 539 194 866 194 1500 0
327 -12 551 -38 703 -10 56 -15 102 -12 102 4 0 39 -33 78 -72z m1490 -1663
c-2 -2 -15 -1 -30 2 -27 5 -28 8 -28 62 l1 56 30 -59 c17 -32 29 -59 27 -61z
m-255 -21 c175 -26 157 1 157 -236 0 -112 -5 -246 -10 -298 -11 -108 -31 -232
-37 -226 -2 2 -21 70 -43 152 -39 151 -113 376 -169 517 -33 82 -38 107 -20
107 6 0 61 -7 122 -16z m535 -142 c63 -24 116 -51 119 -58 4 -11 -15 -185 -48
-429 -19 -147 -27 -157 -51 -62 -29 119 -117 403 -157 505 l-39 103 32 -7 c17
-3 82 -27 144 -52z m-4513 -353 l7 -96 -33 -13 c-19 -7 -69 -31 -113 -52 -43
-21 -80 -37 -82 -35 -5 5 82 262 134 397 71 186 65 183 73 30 3 -74 10 -178
14 -231z m-1080 91 c182 -314 320 -526 580 -894 l155 -219 -92 -59 c-50 -33
-94 -55 -98 -51 -18 19 -265 371 -357 508 -206 309 -403 664 -403 729 0 39 26
100 67 154 l25 33 22 -33 c13 -18 58 -94 101 -168z m5877 137 c94 -48 282
-171 373 -245 l60 -48 3 -84 c2 -47 -1 -211 -7 -365 -17 -425 -23 -531 -32
-510 -4 11 -26 85 -49 165 -78 267 -246 692 -381 962 -49 98 -72 168 -55 168
2 0 41 -19 88 -43z m-4343 -234 c1 -13 -3 -23 -9 -23 -5 0 -10 19 -9 43 0 32
2 37 9 22 5 -11 9 -30 9 -42z m-82 -123 c-14 -129 -19 -628 -8 -764 6 -77 9
-141 7 -143 -2 -2 -24 34 -50 80 -58 107 -136 311 -175 458 -34 126 -74 346
-66 359 7 11 103 39 190 55 115 21 109 24 102 -45z m-727 -302 c-9 -35 -30
-121 -45 -193 -36 -174 -32 -165 -56 -135 -39 49 -119 169 -119 179 0 11 217
211 229 211 5 0 1 -28 -9 -62z m-566 -253 c62 -94 166 -245 230 -335 65 -90
118 -171 118 -179 1 -9 -18 -106 -40 -216 -75 -370 -115 -715 -128 -1115 -4
-113 -10 -211 -14 -218 -4 -9 -15 5 -29 40 -103 243 -172 510 -225 868 -47
319 -57 479 -62 940 l-5 435 21 -25 c12 -14 72 -102 134 -195z m5183 -358
c108 -40 186 -229 140 -339 -23 -55 -56 -72 -126 -65 -67 6 -106 24 -163 75
-94 84 -117 241 -45 301 45 37 135 50 194 28z m-3329 -601 c72 -38 150 -155
159 -239 10 -95 -36 -137 -148 -137 -55 0 -72 4 -107 28 -115 78 -153 202 -86
289 51 67 122 90 182 59z m-1734 -1158 c59 -129 84 -165 110 -155 12 5 13 34
9 184 -3 98 -2 218 2 268 l7 89 23 -26 c23 -27 182 -290 308 -509 124 -215
206 -419 271 -672 44 -170 92 -291 153 -380 76 -113 249 -255 413 -341 44 -24
70 -43 70 -54 1 -64 143 -406 208 -502 17 -24 30 -46 28 -47 -1 -2 -29 -14
-61 -27 -39 -16 -66 -21 -79 -16 -12 4 -59 20 -106 35 -184 59 -433 213 -544
336 -104 115 -160 217 -216 388 -52 162 -65 159 -57 -15 9 -202 48 -369 151
-649 11 -29 -93 82 -165 177 -377 495 -621 1296 -673 2213 l-6 100 49 -135
c26 -74 74 -192 105 -262z m5751 -818 c-25 -124 -63 -308 -87 -410 l-42 -185
-58 -72 c-62 -75 -153 -160 -253 -235 -98 -74 -97 -74 -157 -34 -29 19 -65 38
-80 42 -16 3 -28 8 -28 10 0 2 15 32 34 66 48 88 103 227 131 333 19 69 31 96
52 113 155 131 346 345 453 507 34 52 71 97 76 92 1 -1 -17 -104 -41 -227z
m-585 -464 c0 -2 -16 -50 -36 -107 -40 -117 -113 -266 -140 -290 -19 -17 -96
-33 -107 -23 -3 3 10 63 28 132 37 141 30 131 175 241 60 46 80 57 80 47z
m390 -373 c-20 -65 -56 -167 -79 -228 -24 -60 -45 -118 -48 -127 -3 -10 -8
-18 -12 -18 -3 0 -39 41 -80 90 -40 50 -77 90 -82 90 -22 0 -5 20 39 48 26 17
103 83 172 146 69 63 126 115 126 116 1 0 -15 -53 -36 -117z m-759 85 c1 -13
0 -102 -1 -198 -2 -176 10 -312 34 -382 l13 -37 -96 -133 c-86 -118 -341 -447
-440 -566 -21 -26 -62 -58 -101 -78 -36 -18 -84 -45 -107 -60 -24 -14 -43 -21
-43 -15 0 6 23 72 50 146 28 75 68 195 90 268 46 153 184 701 200 798 6 36 15
71 19 77 7 12 357 200 374 201 4 1 8 -9 8 -21z m-3290 -69 c225 -93 498 -180
764 -244 61 -15 117 -29 125 -32 8 -3 -122 -40 -290 -83 l-305 -78 -40 20
c-63 32 -172 116 -210 162 -41 50 -89 144 -105 206 -6 25 -13 53 -16 63 -7 22
-10 22 77 -14z m3587 -135 c64 -32 292 -266 292 -300 0 -41 -109 -220 -183
-301 -128 -139 124 -79 448 106 l40 23 105 -62 c58 -35 222 -123 365 -197 143
-74 293 -154 333 -176 l74 -42 -54 -8 c-174 -25 -437 -160 -703 -361 -154
-117 -403 -332 -672 -583 -303 -281 -517 -453 -667 -533 -75 -41 -76 -41 -76
-18 0 54 12 68 108 125 182 109 225 158 257 295 56 244 5 518 -108 583 -12 7
-24 41 -38 110 -35 171 -76 227 -168 229 -28 1 -51 2 -51 4 0 2 71 97 158 210
261 340 472 638 472 667 0 41 -67 -14 -119 -99 -20 -31 -26 -35 -33 -23 -17
32 -32 221 -22 293 9 66 10 69 39 75 74 16 150 9 203 -17z m-2343 -219 c99
-20 183 -39 188 -42 11 -7 7 -39 -27 -228 -23 -128 -29 -192 -41 -415 -5 -105
13 -533 30 -725 9 -87 29 -254 45 -370 17 -115 30 -211 30 -212 0 -1 -25 7
-56 17 -97 34 -214 51 -382 57 l-163 6 -73 86 c-117 139 -184 238 -246 366
-128 267 -205 543 -230 824 -15 181 -14 471 2 487 17 17 697 194 724 189 11
-3 101 -21 199 -40z m1222 33 c-2 -7 -28 -93 -56 -190 -90 -311 -209 -646
-274 -773 l-24 -49 -26 105 c-13 57 -57 226 -96 374 -39 149 -72 285 -73 304
l-3 34 75 -2 c80 -2 135 18 241 85 56 36 221 124 233 124 4 0 6 -6 3 -12z
m-2254 -138 c5 -4 -5 -11 -22 -15 -34 -7 -47 4 -95 77 -18 29 -18 29 45 -12
35 -23 68 -45 72 -50z m46 -311 c6 -548 181 -1065 478 -1422 36 -43 64 -79 62
-81 -2 -2 -49 -8 -104 -15 -56 -6 -148 -22 -205 -35 -79 -18 -108 -21 -119
-13 -25 21 -117 152 -165 234 -100 174 -209 452 -255 653 -56 241 -52 636 8
793 8 19 27 34 67 52 31 14 57 25 58 25 0 0 0 -55 0 -122 -1 -68 0 -106 3 -85
2 20 8 35 14 32 14 -9 68 55 62 74 -4 14 -3 14 6 1 10 -13 13 -13 26 4 8 11
15 26 15 34 0 8 8 20 17 27 15 11 14 12 -11 8 -34 -7 -33 16 2 32 12 5 23 14
23 20 5 34 16 -110 18 -216z m1257 94 c46 -163 93 -357 103 -423 16 -101 32
-315 26 -332 -5 -13 -14 -14 -43 -7 -20 5 -69 9 -108 9 l-71 0 -7 138 c-10
211 19 552 61 695 7 27 12 18 39 -80z m-1419 -35 c-3 -7 -5 -2 -5 12 0 14 2
19 5 13 2 -7 2 -19 0 -25z m5098 -465 c73 -47 155 -115 149 -124 -3 -5 3 -9
13 -9 26 0 153 -118 170 -158 8 -19 12 -36 10 -38 -2 -2 -22 2 -44 10 -205 72
-526 -51 -893 -342 -116 -92 -186 -153 -400 -347 -542 -492 -791 -665 -1107
-770 l-112 -37 -77 63 -76 64 58 27 c33 14 56 27 52 27 -4 1 -33 -10 -64 -24
-32 -14 -59 -23 -62 -21 -2 3 11 44 30 93 l34 88 101 56 c175 97 311 203 617
480 428 388 558 500 731 631 209 158 395 265 554 318 164 55 246 58 316 13z
m-3575 -313 c24 -13 26 -62 10 -204 -10 -87 -104 -544 -114 -554 -8 -7 -12 12
-25 104 -26 183 -40 304 -46 399 -4 55 -11 134 -15 175 -10 100 -6 104 92 97
43 -4 87 -11 98 -17z"/>
<path d="M6034 7436 c-159 -53 -294 -118 -346 -167 -62 -58 -45 -85 19 -29 67
59 249 136 413 175 80 19 100 29 100 51 0 23 -48 16 -186 -30z"/>
<path d="M7042 6265 c6 -14 16 -25 21 -25 5 0 5 6 -2 13 -6 8 -8 16 -5 19 2 3
-2 8 -10 11 -13 5 -13 2 -4 -18z"/>
<path d="M6970 6260 c0 -11 4 -20 9 -20 5 0 7 9 4 20 -3 11 -7 20 -9 20 -2 0
-4 -9 -4 -20z"/>
<path d="M7140 6213 c13 -18 25 -33 27 -33 8 0 -17 38 -33 51 -11 9 -9 2 6
-18z"/>
<path d="M6940 6061 c0 -6 4 -13 10 -16 6 -3 7 1 4 9 -7 18 -14 21 -14 7z"/>
<path d="M7182 6050 c0 -14 2 -19 5 -12 2 6 2 18 0 25 -3 6 -5 1 -5 -13z"/>
<path d="M6321 6034 c0 -11 3 -14 6 -6 3 7 2 16 -1 19 -3 4 -6 -2 -5 -13z"/>
<path d="M6122 6015 c0 -16 2 -22 5 -12 2 9 2 23 0 30 -3 6 -5 -1 -5 -18z"/>
<path d="M7030 5931 c0 -6 4 -13 10 -16 6 -3 7 1 4 9 -7 18 -14 21 -14 7z"/>
<path d="M6150 5876 c0 -8 4 -17 9 -20 5 -4 7 3 4 14 -6 23 -13 26 -13 6z"/>
<path d="M6170 5821 c0 -6 4 -13 10 -16 6 -3 7 1 4 9 -7 18 -14 21 -14 7z"/>
<path d="M3115 5520 c3 -5 8 -10 11 -10 2 0 4 5 4 10 0 6 -5 10 -11 10 -5 0
-7 -4 -4 -10z"/>
<path d="M3006 5473 c-6 -14 -5 -15 5 -6 7 7 10 15 7 18 -3 3 -9 -2 -12 -12z"/>
<path d="M2985 5439 c-4 -6 -5 -12 -2 -15 2 -3 7 2 10 11 7 17 1 20 -8 4z"/>
<path d="M3183 5404 c11 -14 17 -39 17 -75 l1 -54 20 39 21 39 -38 36 c-21 20
-30 27 -21 15z"/>
<path d="M3849 5403 c-13 -16 -12 -17 4 -4 9 7 17 15 17 17 0 8 -8 3 -21 -13z"/>
<path d="M2980 5381 c0 -6 4 -13 10 -16 6 -3 7 1 4 9 -7 18 -14 21 -14 7z"/>
<path d="M3840 5350 c0 -5 5 -10 10 -10 6 0 10 5 10 10 0 6 -4 10 -10 10 -5 0
-10 -4 -10 -10z"/>
<path d="M3160 5113 c0 -6 8 -17 18 -24 16 -13 16 -13 2 6 -8 11 -16 22 -17
24 -2 2 -3 0 -3 -6z"/>
<path d="M4696 5044 c-9 -24 -7 -72 3 -78 11 -7 21 18 21 54 0 33 -15 48 -24
24z"/>
<path d="M5599 4331 c-74 -53 -225 -127 -324 -159 -85 -28 -105 -48 -45 -45
87 4 322 110 402 181 42 39 53 62 29 62 -4 0 -32 -17 -62 -39z"/>
<path d="M4673 4184 c-8 -21 7 -29 92 -56 82 -26 275 -33 282 -10 3 8 -8 12
-37 12 -66 0 -176 20 -253 46 -84 28 -76 28 -84 8z"/>
<path d="M3434 2545 c0 -60 1 -84 3 -52 2 32 2 81 0 110 -2 29 -3 3 -3 -58z"/>
<path d="M3442 2380 c0 -19 2 -27 5 -17 2 9 2 25 0 35 -3 9 -5 1 -5 -18z"/>
<path d="M3452 2300 c0 -19 2 -27 5 -17 2 9 2 25 0 35 -3 9 -5 1 -5 -18z"/>
<path d="M3462 2240 c0 -14 2 -19 5 -12 2 6 2 18 0 25 -3 6 -5 1 -5 -13z"/>
<path d="M3471 2184 c0 -11 3 -14 6 -6 3 7 2 16 -1 19 -3 4 -6 -2 -5 -13z"/>
<path d="M3481 2134 c0 -11 3 -14 6 -6 3 7 2 16 -1 19 -3 4 -6 -2 -5 -13z"/>
<path d="M3491 2084 c0 -11 3 -14 6 -6 3 7 2 16 -1 19 -3 4 -6 -2 -5 -13z"/>
<path d="M3501 2044 c0 -11 3 -14 6 -6 3 7 2 16 -1 19 -3 4 -6 -2 -5 -13z"/>
<path d="M3511 2010 c0 -8 4 -24 9 -35 5 -13 9 -14 9 -5 0 8 -4 24 -9 35 -5
13 -9 14 -9 5z"/>
<path d="M3551 1880 c0 -8 4 -22 9 -30 12 -18 12 -2 0 25 -6 13 -9 15 -9 5z"/>
<path d="M3590 1765 c0 -5 5 -17 10 -25 5 -8 10 -10 10 -5 0 6 -5 17 -10 25
-5 8 -10 11 -10 5z"/>
<path d="M3611 1715 c0 -5 6 -21 14 -35 8 -14 14 -20 14 -15 0 6 -6 21 -14 35
-8 14 -14 21 -14 15z"/>
<path d="M3695 1540 c9 -16 18 -30 21 -30 2 0 -2 14 -11 30 -9 17 -18 30 -21
30 -2 0 2 -13 11 -30z"/>
<path d="M3740 1460 c6 -11 13 -20 16 -20 2 0 0 9 -6 20 -6 11 -13 20 -16 20
-2 0 0 -9 6 -20z"/>
<path d="M3770 1411 c5 -11 15 -23 21 -27 6 -3 3 5 -6 20 -20 30 -30 35 -15 7z"/>
<path d="M3861 1280 c23 -33 49 -66 57 -72 8 -7 -9 20 -38 60 -63 87 -79 97
-19 12z"/>
<path d="M8553 2193 c26 -2 67 -2 90 0 23 2 2 3 -48 3 -49 0 -68 -1 -42 -3z"/>
<path d="M8458 2183 c6 -2 18 -2 25 0 6 3 1 5 -13 5 -14 0 -19 -2 -12 -5z"/>
<path d="M8418 2173 c7 -3 16 -2 19 1 4 3 -2 6 -13 5 -11 0 -14 -3 -6 -6z"/>
<path d="M8378 2163 c7 -3 16 -2 19 1 4 3 -2 6 -13 5 -11 0 -14 -3 -6 -6z"/>
<path d="M8270 2130 c-8 -5 -10 -10 -5 -10 6 0 17 5 25 10 8 5 11 10 5 10 -5
0 -17 -5 -25 -10z"/>
<path d="M8210 2105 c-14 -8 -20 -14 -15 -14 6 0 21 6 35 14 14 8 21 14 15 14
-5 0 -21 -6 -35 -14z"/>
<path d="M8058 2029 c-21 -11 -38 -22 -38 -24 0 -3 18 4 40 15 22 11 40 23 40
25 0 7 0 7 -42 -16z"/>
<path d="M7937 1955 c-37 -25 -67 -48 -67 -50 0 -3 32 16 70 41 61 41 77 54
67 54 -1 0 -33 -20 -70 -45z"/>
<path d="M7803 1859 c-29 -22 -53 -42 -53 -45 0 -2 25 14 55 37 48 36 62 49
53 49 -2 0 -27 -18 -55 -41z"/>
<path d="M7635 1724 c-55 -48 -194 -173 -310 -279 -273 -250 -388 -351 -507
-443 -54 -41 -98 -77 -98 -80 0 -6 49 31 167 126 94 75 212 179 504 447 90 83
206 186 257 229 81 69 99 87 90 86 -2 0 -48 -39 -103 -86z"/>
<path d="M6642 876 c-61 -42 -92 -68 -62 -51 32 18 130 86 130 90 0 7 0 7 -68
-39z"/>
<path d="M6435 754 c-66 -35 -116 -64 -112 -64 12 0 197 96 222 114 33 25 15
17 -110 -50z"/>
<path d="M1 4302 c-1 -125 1 -137 26 -190 17 -34 58 -88 103 -134 82 -85 128
-108 60 -30 -83 93 -127 194 -165 377 l-24 110 0 -133z"/>
<path d="M8788 1590 c-268 -46 -617 -315 -966 -748 -169 -209 -456 -635 -546
-810 l-17 -32 28 0 c25 0 34 11 87 106 119 216 392 604 561 799 130 150 344
355 460 443 177 133 338 201 478 202 43 0 57 4 57 14 0 8 -3 17 -8 20 -17 10
-90 13 -134 6z"/>
<path d="M4585 883 c-117 -26 -215 -77 -215 -111 1 -28 42 -70 91 -90 58 -25
105 -32 102 -14 -2 6 0 11 5 10 4 -2 27 16 51 39 24 24 60 48 81 54 58 17 79
75 38 103 -21 15 -104 20 -153 9z"/>
<path d="M7187 634 c-34 -64 -108 -402 -122 -556 l-7 -78 25 0 c29 0 33 8 42
100 7 74 48 327 71 443 8 42 14 87 12 100 -3 20 -5 20 -21 -9z"/>
</g>
</svg>
